# xmcd
#
# Track frame offsets:
#	150
#	21065
#	42822
#	63555
#	84405
#	104402
#	126717
#	145285
#
# Disc length: 2214 seconds
#
# Revision: 3
# Processed by: cddbd v1.5.2PL0 Copyright (c) Steve Scherf et al.
# Submitted via: EasyCDDAExtractor 12.0.1.1
#
DISCID=6f08a408
DTITLE=Celines - Libre
DYEAR=1995
DGENRE=Latin
TTITLE0=Tus Desprecios
TTITLE1=Bombon Caribe
TTITLE2=Amigos
TTITLE3=Libre
TTITLE4=Vivita Y Cantando
TTITLE5=No Me Puedes Dejar Asi
TTITLE6=Amor De Araña
TTITLE7=Si Vuelves Tu
EXTD=
EXTT0=
EXTT1=
EXTT2=
EXTT3=
EXTT4=
EXTT5=
EXTT6=
EXTT7=
PLAYORDER=
